<svg width="123" height="28" viewBox="0 0 123 28" fill="none" xmlns="http://www.w3.org/2000/svg">
<path d="M4.6991 0H0V27.5637H17.0471V23.538H4.6991V0Z" fill="white"/>
<path d="M24.8042 12.5481H20.251V27.5623H24.8042V12.5481Z" fill="white"/>
<path d="M38.208 27.0184L32.4165 8.01392H27.8633L33.9465 27.5628H42.4695L48.5527 8.01392H43.9628L38.208 27.0184Z" fill="white"/>
<path d="M59.8485 7.58081C53.9468 7.58081 50.1953 11.7884 50.1953 17.7721C50.1953 23.7204 53.8377 28 59.8485 28C64.4374 28 67.7524 25.9688 68.9906 21.7979H64.3607C63.6692 23.6838 62.3931 24.8102 59.8798 24.8102C57.1116 24.8102 55.1818 22.8877 54.8177 19.1169H69.3148C69.3841 18.6362 69.4202 18.1513 69.4228 17.6656C69.4239 11.57 65.6357 7.58081 59.8485 7.58081ZM54.8534 15.9583C55.3277 12.4414 57.1851 10.7728 59.8485 10.7728C62.6524 10.7728 64.5465 12.8395 64.7659 15.9583H54.8534Z" fill="white"/>
<path d="M96.0485 0H90.1479L78.7108 12.6216V0H74.0117V27.5637H78.7108V13.6372L91.3138 27.5637H97.3235L84.1382 13.0562L96.0485 0Z" fill="white"/>
<path d="M103.914 8.01392H99.3604V23.0281H103.914V8.01392Z" fill="white"/>
<path d="M20.2515 8.01392H15.6982V12.5474H20.2515V8.01392Z" fill="white"/>
<path d="M108.468 23.03H103.915V27.5636H108.468V23.03Z" fill="white"/>
<path d="M122.074 23.03H117.521V27.5636H122.074V23.03Z" fill="white"/>
<path d="M122.073 12.5484V8.0149H117.52V0H112.966V8.0149H108.413V12.5484H112.966V23.0302H117.52V12.5484H122.073Z" fill="white"/>
</svg>
