<svg xmlns="http://www.w3.org/2000/svg" width="961" height="121" fill="none"><path fill="#fff" d="M20.2 0H0v118.1h73.4V101H20.2V0ZM106.9 53.8H87.2V118H107V53.8ZM164.6 115.8l-25-81.5H120l26.2 83.8H183l26.2-83.8h-19.8l-24.8 81.5ZM257.8 32.5c-25.4 0-41.6 18-41.6 43.7 0 25.5 15.7 43.8 41.6 43.8 19.8 0 34-8.7 39.4-26.6h-20c-3 8.1-8.4 13-19.2 13-12 0-20.3-8.3-21.9-24.5h62.5c.3-2 .5-4.1.5-6.2 0-26.1-16.3-43.2-41.3-43.2Zm-21.5 35.9c2-15 10-22.2 21.5-22.2 12.1 0 20.3 8.8 21.2 22.2h-42.7ZM413.8 0h-25.5l-49.2 54V0h-20.3v118.1h20.3V58.4l54.3 59.7h25.9L362.5 56l51.3-56ZM447.7 34.3H428v64.4h19.7V34.3ZM87.2 34.3H67.6v19.5h19.6V34.3ZM467.3 98.7h-19.6v19.4h19.6V98.7ZM525.9 98.7h-19.6v19.4h19.6V98.7ZM525.9 53.8V34.3h-19.6V0h-19.7v34.3H467v19.5h19.6v44.9h19.7v-45h19.6Z"/><path fill="#FF6352" d="M589.8 119V.4h-10.7V119h10.7Zm53.9 0L602.3.4H591L632.4 119h11.3Zm12.3 0L697.3.4h-11.2L644.7 119H656Zm53.2 0V.4h-10.6V119h10.6Zm99.4-42.9c0-25.6-16.4-41.8-38.4-41.8-23 0-38.7 17.5-38.7 43.2 0 25.9 15.6 43.2 39.2 43.2 18 0 31.3-8.4 36.2-26h-10.6c-3.6 11.4-11.7 18.2-25.6 18.2-16.4 0-27.8-11.8-28.7-32.7h66.3c.1-1.8.3-2.7.3-4.1Zm-38.4-34c16 0 26.8 12.8 27.8 30.1H742c1.7-18.9 12.4-30.1 28.1-30.1Zm130.4 34c0-25.6-16.4-41.8-38.4-41.8-23 0-38.7 17.5-38.7 43.2 0 25.9 15.6 43.2 39.2 43.2 18 0 31.3-8.4 36.2-26h-10.6c-3.6 11.4-11.7 18.2-25.6 18.2-16.4 0-27.8-11.8-28.7-32.7h66.3c.1-1.8.3-2.7.3-4.1Zm-38.4-34c16 0 26.9 12.8 27.8 30.1H834c1.8-18.9 12.4-30.1 28.1-30.1Zm88.3 69c-8.7 0-13.5-3.5-13.5-13.2V44h22.9v-8h-23V16.4h-10.2V36H908v8h18.6v53.9c0 14.4 9.3 21.1 22.9 21.1H960v-8h-9.5Z"/></svg>